<?xml version="1.0" encoding="utf-8"?>
<!-- Generator: Adobe Illustrator 25.2.1, SVG Export Plug-In . SVG Version: 6.00 Build 0)  -->
<svg version="1.1" id="Layer_1" xmlns="http://www.w3.org/2000/svg" xmlns:xlink="http://www.w3.org/1999/xlink" x="0px" y="0px"
	 viewBox="0 0 175.87 175.87" style="enable-background:new 0 0 175.87 175.87;" xml:space="preserve">
<style type="text/css">
	.st0{fill:#FF6600;}
</style>
<g>
	<path class="st0" d="M153.97,62.49C143.59,31.23,114.07,9.43,80.39,9.43c-42.75,0-77.52,34.78-77.52,77.52
		c0,39.45,29.73,72.17,67.95,76.91c1.73,4.45,6.05,7.61,11.12,7.61c6.59,0,11.93-5.34,11.93-11.93c0-6.59-5.34-11.93-11.93-11.93
		c-4.54,0-8.48,2.53-10.5,6.26c-32.99-4.4-58.57-32.76-58.57-66.91c0-37.23,30.29-67.52,67.52-67.52
		c31.72,0,59.18,22.19,65.93,52.98v43.24c14.98,0,27.13-12.15,27.13-27.13C173.46,76.19,165.23,65.79,153.97,62.49z"/>
	
		<ellipse transform="matrix(0.9951 -0.0985 0.0985 0.9951 -7.742 5.8087)" class="st0" cx="54.93" cy="81.28" rx="11.93" ry="11.93"/>
	
		<ellipse transform="matrix(0.5257 -0.8507 0.8507 0.5257 -16.922 132.2139)" class="st0" cx="110.11" cy="81.28" rx="11.93" ry="11.93"/>
</g>
</svg>
